<?xml version="1.0" encoding="UTF-8"?>
<svg id="katman_2" xmlns="http://www.w3.org/2000/svg" version="1.1" viewBox="0 0 1920 1080">
  <!-- Generator: Adobe Illustrator 29.7.1, SVG Export Plug-In . SVG Version: 2.1.1 Build 8)  -->
  <defs>
    <style>
      .st0 {
        font-family: FelixTitlingMT, 'Felix Titling';
        font-size: 48px;
        letter-spacing: .2em;
      }

      .st0, .st1 {
        fill: #fff;
      }

      .st1 {
        stroke: #000;
        stroke-miterlimit: 10;
      }
    </style>
  </defs>
  <path class="st1" d="M958.46,653.74h0c0-87.84-71.21-159.04-159.04-159.04h0c87.84,0,159.04-71.21,159.04-159.04h0c0,87.84,71.21,159.04,159.04,159.04h0c-87.84,0-159.04,71.21-159.04,159.04Z"/>
  <path class="st1" d="M945.57,726.41c-15.06,2.97-30.64,4.51-46.57,4.51-132.82,0-240.49-107.67-240.49-240.49s107.67-240.49,240.49-240.49c19.97,0,39.36,2.44,57.91,7.02-110.54,21.68-193.92,119.09-193.92,235.97s77.72,207.55,182.58,233.46Z"/>
  <path class="st1" d="M1258.39,492.95c0,132.81-107.67,240.49-240.49,240.49-19.97,0-39.36-2.44-57.91-7.02,110.53-21.68,193.92-119.09,193.92-235.97s-77.73-207.55-182.58-233.46c15.06-2.97,30.64-4.51,46.57-4.51,132.82,0,240.49,107.67,240.49,240.49Z"/>
  <text class="st0" transform="translate(1245 275.57)"><tspan x="0" y="0">©</tspan></text>
</svg>